<svg width="130" height="27" viewBox="0 0 130 27" fill="none" xmlns="http://www.w3.org/2000/svg">
<path d="M20.736 0.396003V6.048H13.86V25.884H6.804V6.048H3.93763e-06V0.396003H20.736ZM39.1556 21.636H30.1196L28.7156 25.884H21.2636L30.5876 0.504001H38.7596L48.0476 25.884H40.5596L39.1556 21.636ZM37.3916 16.308L34.6556 8.028L31.8836 16.308H37.3916ZM69.1419 18.54C69.1419 19.956 68.7819 21.24 68.0619 22.392C67.3419 23.544 66.2859 24.456 64.8939 25.128C63.5019 25.8 61.8339 26.136 59.8899 26.136C56.9379 26.136 54.5019 25.428 52.5819 24.012C50.6859 22.596 49.6539 20.58 49.4859 17.964H57.0099C57.0819 18.852 57.3579 19.512 57.8379 19.944C58.3179 20.376 58.9059 20.592 59.6019 20.592C60.2259 20.592 60.7059 20.436 61.0419 20.124C61.4019 19.812 61.5819 19.368 61.5819 18.792C61.5819 18.024 61.2339 17.436 60.5379 17.028C59.8419 16.596 58.7379 16.128 57.2259 15.624C55.6179 15.072 54.2859 14.532 53.2299 14.004C52.1979 13.476 51.2979 12.684 50.5299 11.628C49.7859 10.572 49.4139 9.216 49.4139 7.56C49.4139 5.976 49.8219 4.62 50.6379 3.492C51.4539 2.34 52.5699 1.476 53.9859 0.900002C55.4019 0.300002 57.0099 1.19209e-06 58.8099 1.19209e-06C61.7379 1.19209e-06 64.0659 0.696002 65.7939 2.088C67.5459 3.456 68.5059 5.388 68.6739 7.884H61.0779C60.9819 7.092 60.7299 6.504 60.3219 6.12C59.9379 5.736 59.4219 5.544 58.7739 5.544C58.2219 5.544 57.7899 5.688 57.4779 5.976C57.1659 6.264 57.0099 6.696 57.0099 7.272C57.0099 7.992 57.3459 8.556 58.0179 8.964C58.7139 9.372 59.7939 9.828 61.2579 10.332C62.8659 10.908 64.1979 11.472 65.2539 12.024C66.3099 12.576 67.2219 13.38 67.9899 14.436C68.7579 15.492 69.1419 16.86 69.1419 18.54ZM86.0352 12.852L95.8992 25.884H87.3672L79.3392 14.616V25.884H72.2472V0.396003H79.3392V11.412L87.4392 0.396003H95.8992L86.0352 12.852Z" fill="black"/>
<path d="M121.484 0.396003L112.484 17.784V25.884H105.428V17.784L96.4277 0.396003H104.528L109.028 10.116L113.492 0.396003H121.484ZM129.803 18.972V25.884H122.639V18.972H129.803Z" fill="#FABB18"/>
</svg>
